<svg width="1130" height="154" viewBox="0 0 1130 154" fill="none" xmlns="http://www.w3.org/2000/svg">
<rect width="44.7373" height="27.0978" transform="matrix(1 0 0 -1 401.561 138.856)" fill="#322F2F"/>
<rect x="729.152" y="137.51" width="44.7373" height="27.0978" transform="rotate(-180 729.152 137.51)" fill="#322F2F"/>
<rect width="407.975" height="14.0005" transform="matrix(1 0 0 -1 0.879639 132.307)" fill="#322F2F"/>
<rect width="407.975" height="14.0005" transform="matrix(1 0 0 -1 721.858 132.307)" fill="#322F2F"/>
<rect width="99.2001" height="56.0022" transform="matrix(1 0 0 -1 438.517 153.308)" fill="#322F2F"/>
<rect width="50.5726" height="7.2261" transform="matrix(1 0 0 -1 537.718 142.469)" fill="#322F2F"/>
<rect width="50.5726" height="7.2261" transform="matrix(1 0 0 -1 537.718 115.371)" fill="#322F2F"/>
<path fill-rule="evenodd" clip-rule="evenodd" d="M692.195 151.962H592.995V142.027H612.932V134.8H592.995V114.929H612.932V107.703H592.995V95.9602H692.195V151.962Z" fill="#322F2F"/>
<path d="M418.744 19.544L409.048 53H404.152L396.376 26.072L388.312 53L383.464 53.048L374.104 19.544H378.76L386.056 47.912L394.12 19.544H399.016L406.696 47.816L414.04 19.544H418.744ZM447.524 38.84C447.524 39.672 447.476 40.552 447.38 41.48H426.356C426.516 44.072 427.396 46.104 428.996 47.576C430.628 49.016 432.596 49.736 434.9 49.736C436.788 49.736 438.356 49.304 439.604 48.44C440.884 47.544 441.78 46.36 442.292 44.888H446.996C446.292 47.416 444.884 49.48 442.772 51.08C440.66 52.648 438.036 53.432 434.9 53.432C432.404 53.432 430.164 52.872 428.18 51.752C426.228 50.632 424.692 49.048 423.572 47C422.452 44.92 421.892 42.52 421.892 39.8C421.892 37.08 422.436 34.696 423.524 32.648C424.612 30.6 426.132 29.032 428.084 27.944C430.068 26.824 432.34 26.264 434.9 26.264C437.396 26.264 439.604 26.808 441.524 27.896C443.444 28.984 444.916 30.488 445.94 32.408C446.996 34.296 447.524 36.44 447.524 38.84ZM443.012 37.928C443.012 36.264 442.644 34.84 441.908 33.656C441.172 32.44 440.164 31.528 438.884 30.92C437.636 30.28 436.244 29.96 434.708 29.96C432.5 29.96 430.612 30.664 429.044 32.072C427.508 33.48 426.628 35.432 426.404 37.928H443.012ZM464.455 36.248C464.455 32.984 465.191 30.056 466.663 27.464C468.135 24.84 470.135 22.792 472.663 21.32C475.223 19.848 478.055 19.112 481.159 19.112C484.807 19.112 487.991 19.992 490.711 21.752C493.431 23.512 495.415 26.008 496.663 29.24H491.431C490.503 27.224 489.159 25.672 487.399 24.584C485.671 23.496 483.591 22.952 481.159 22.952C478.823 22.952 476.727 23.496 474.871 24.584C473.015 25.672 471.559 27.224 470.503 29.24C469.447 31.224 468.919 33.56 468.919 36.248C468.919 38.904 469.447 41.24 470.503 43.256C471.559 45.24 473.015 46.776 474.871 47.864C476.727 48.952 478.823 49.496 481.159 49.496C483.591 49.496 485.671 48.968 487.399 47.912C489.159 46.824 490.503 45.272 491.431 43.256H496.663C495.415 46.456 493.431 48.936 490.711 50.696C487.991 52.424 484.807 53.288 481.159 53.288C478.055 53.288 475.223 52.568 472.663 51.128C470.135 49.656 468.135 47.624 466.663 45.032C465.191 42.44 464.455 39.512 464.455 36.248ZM514.637 53.432C512.173 53.432 509.933 52.872 507.917 51.752C505.933 50.632 504.365 49.048 503.213 47C502.093 44.92 501.533 42.52 501.533 39.8C501.533 37.112 502.109 34.744 503.261 32.696C504.445 30.616 506.045 29.032 508.061 27.944C510.077 26.824 512.333 26.264 514.829 26.264C517.325 26.264 519.581 26.824 521.597 27.944C523.613 29.032 525.197 30.6 526.349 32.648C527.533 34.696 528.125 37.08 528.125 39.8C528.125 42.52 527.517 44.92 526.301 47C525.117 49.048 523.501 50.632 521.453 51.752C519.405 52.872 517.133 53.432 514.637 53.432ZM514.637 49.592C516.205 49.592 517.677 49.224 519.053 48.488C520.429 47.752 521.533 46.648 522.365 45.176C523.229 43.704 523.661 41.912 523.661 39.8C523.661 37.688 523.245 35.896 522.413 34.424C521.581 32.952 520.493 31.864 519.149 31.16C517.805 30.424 516.349 30.056 514.781 30.056C513.181 30.056 511.709 30.424 510.365 31.16C509.053 31.864 507.997 32.952 507.197 34.424C506.397 35.896 505.997 37.688 505.997 39.8C505.997 41.944 506.381 43.752 507.149 45.224C507.949 46.696 509.005 47.8 510.317 48.536C511.629 49.24 513.069 49.592 514.637 49.592ZM546.684 26.216C549.884 26.216 552.476 27.192 554.46 29.144C556.444 31.064 557.436 33.848 557.436 37.496V53H553.116V38.12C553.116 35.496 552.46 33.496 551.148 32.12C549.836 30.712 548.044 30.008 545.772 30.008C543.468 30.008 541.628 30.728 540.252 32.168C538.908 33.608 538.236 35.704 538.236 38.456V53H533.868V26.696H538.236V30.44C539.1 29.096 540.268 28.056 541.74 27.32C543.244 26.584 544.892 26.216 546.684 26.216ZM577.387 26.216C580.587 26.216 583.179 27.192 585.163 29.144C587.147 31.064 588.139 33.848 588.139 37.496V53H583.819V38.12C583.819 35.496 583.163 33.496 581.851 32.12C580.539 30.712 578.747 30.008 576.475 30.008C574.171 30.008 572.331 30.728 570.955 32.168C569.611 33.608 568.939 35.704 568.939 38.456V53H564.571V26.696H568.939V30.44C569.803 29.096 570.971 28.056 572.443 27.32C573.947 26.584 575.595 26.216 577.387 26.216ZM619.274 38.84C619.274 39.672 619.226 40.552 619.13 41.48H598.106C598.266 44.072 599.146 46.104 600.746 47.576C602.378 49.016 604.346 49.736 606.65 49.736C608.538 49.736 610.106 49.304 611.354 48.44C612.634 47.544 613.53 46.36 614.042 44.888H618.746C618.042 47.416 616.634 49.48 614.522 51.08C612.41 52.648 609.786 53.432 606.65 53.432C604.154 53.432 601.914 52.872 599.93 51.752C597.978 50.632 596.442 49.048 595.322 47C594.202 44.92 593.642 42.52 593.642 39.8C593.642 37.08 594.186 34.696 595.274 32.648C596.362 30.6 597.882 29.032 599.834 27.944C601.818 26.824 604.09 26.264 606.65 26.264C609.146 26.264 611.354 26.808 613.274 27.896C615.194 28.984 616.666 30.488 617.69 32.408C618.746 34.296 619.274 36.44 619.274 38.84ZM614.762 37.928C614.762 36.264 614.394 34.84 613.658 33.656C612.922 32.44 611.914 31.528 610.634 30.92C609.386 30.28 607.994 29.96 606.458 29.96C604.25 29.96 602.362 30.664 600.794 32.072C599.258 33.48 598.378 35.432 598.154 37.928H614.762ZM623.408 39.8C623.408 37.08 623.952 34.712 625.04 32.696C626.128 30.648 627.632 29.064 629.552 27.944C631.504 26.824 633.728 26.264 636.224 26.264C639.456 26.264 642.112 27.048 644.192 28.616C646.304 30.184 647.696 32.36 648.368 35.144H643.664C643.216 33.544 642.336 32.28 641.024 31.352C639.744 30.424 638.144 29.96 636.224 29.96C633.728 29.96 631.712 30.824 630.176 32.552C628.64 34.248 627.872 36.664 627.872 39.8C627.872 42.968 628.64 45.416 630.176 47.144C631.712 48.872 633.728 49.736 636.224 49.736C638.144 49.736 639.744 49.288 641.024 48.392C642.304 47.496 643.184 46.216 643.664 44.552H648.368C647.664 47.24 646.256 49.4 644.144 51.032C642.032 52.632 639.392 53.432 636.224 53.432C633.728 53.432 631.504 52.872 629.552 51.752C627.632 50.632 626.128 49.048 625.04 47C623.952 44.952 623.408 42.552 623.408 39.8ZM659.524 30.296V45.8C659.524 47.08 659.796 47.992 660.34 48.536C660.884 49.048 661.828 49.304 663.172 49.304H666.388V53H662.452C660.02 53 658.196 52.44 656.98 51.32C655.764 50.2 655.156 48.36 655.156 45.8V30.296H651.748V26.696H655.156V20.072H659.524V26.696H666.388V30.296H659.524ZM707.901 19.544L697.005 40.376V53H692.637V40.376L681.693 19.544H686.541L694.797 36.488L703.053 19.544H707.901ZM723.981 53.432C721.517 53.432 719.277 52.872 717.261 51.752C715.277 50.632 713.709 49.048 712.557 47C711.437 44.92 710.877 42.52 710.877 39.8C710.877 37.112 711.453 34.744 712.605 32.696C713.789 30.616 715.389 29.032 717.405 27.944C719.421 26.824 721.677 26.264 724.173 26.264C726.669 26.264 728.925 26.824 730.941 27.944C732.957 29.032 734.541 30.6 735.693 32.648C736.877 34.696 737.469 37.08 737.469 39.8C737.469 42.52 736.861 44.92 735.645 47C734.461 49.048 732.845 50.632 730.797 51.752C728.749 52.872 726.477 53.432 723.981 53.432ZM723.981 49.592C725.549 49.592 727.021 49.224 728.397 48.488C729.773 47.752 730.877 46.648 731.709 45.176C732.573 43.704 733.005 41.912 733.005 39.8C733.005 37.688 732.589 35.896 731.757 34.424C730.925 32.952 729.837 31.864 728.493 31.16C727.149 30.424 725.693 30.056 724.125 30.056C722.525 30.056 721.053 30.424 719.709 31.16C718.397 31.864 717.341 32.952 716.541 34.424C715.741 35.896 715.341 37.688 715.341 39.8C715.341 41.944 715.725 43.752 716.493 45.224C717.293 46.696 718.349 47.8 719.661 48.536C720.973 49.24 722.413 49.592 723.981 49.592ZM766.54 26.696V53H762.172V49.112C761.34 50.456 760.172 51.512 758.668 52.28C757.196 53.016 755.564 53.384 753.772 53.384C751.724 53.384 749.884 52.968 748.252 52.136C746.62 51.272 745.324 49.992 744.364 48.296C743.436 46.6 742.972 44.536 742.972 42.104V26.696H747.292V41.528C747.292 44.12 747.948 46.12 749.26 47.528C750.572 48.904 752.364 49.592 754.636 49.592C756.972 49.592 758.812 48.872 760.156 47.432C761.5 45.992 762.172 43.896 762.172 41.144V26.696H766.54Z" fill="black"/>
</svg>
