<svg width="1324" height="192" viewBox="0 0 1324 192" fill="none" xmlns="http://www.w3.org/2000/svg">
<path d="M217.102 71.3554C212.963 71.3554 209.187 70.3954 205.774 68.4754C202.36 66.5127 199.651 63.8034 197.646 60.3474C195.683 56.8487 194.702 52.9234 194.702 48.5714C194.702 44.2194 195.683 40.3154 197.646 36.8594C199.651 33.3607 202.36 30.6514 205.774 28.7314C209.187 26.7687 212.963 25.7874 217.102 25.7874C221.283 25.7874 225.08 26.7687 228.494 28.7314C231.907 30.6514 234.595 33.3394 236.558 36.7954C238.52 40.2514 239.502 44.1767 239.502 48.5714C239.502 52.9661 238.52 56.8914 236.558 60.3474C234.595 63.8034 231.907 66.5127 228.494 68.4754C225.08 70.3954 221.283 71.3554 217.102 71.3554ZM217.102 66.2994C220.216 66.2994 223.011 65.5741 225.486 64.1234C228.003 62.6727 229.966 60.6034 231.374 57.9154C232.824 55.2274 233.55 52.1127 233.55 48.5714C233.55 44.9874 232.824 41.8727 231.374 39.2274C229.966 36.5394 228.024 34.4701 225.55 33.0194C223.075 31.5687 220.259 30.8434 217.102 30.8434C213.944 30.8434 211.128 31.5687 208.654 33.0194C206.179 34.4701 204.216 36.5394 202.766 39.2274C201.358 41.8727 200.654 44.9874 200.654 48.5714C200.654 52.1127 201.358 55.2274 202.766 57.9154C204.216 60.6034 206.179 62.6727 208.654 64.1234C211.171 65.5741 213.987 66.2994 217.102 66.2994ZM278.294 35.8354V70.9074H272.47V65.7234C271.361 67.5154 269.804 68.9234 267.798 69.9474C265.836 70.9287 263.66 71.4194 261.27 71.4194C258.54 71.4194 256.086 70.8647 253.91 69.7554C251.734 68.6034 250.006 66.8967 248.726 64.6354C247.489 62.3741 246.87 59.6221 246.87 56.3794V35.8354H252.63V55.6114C252.63 59.0674 253.505 61.7341 255.254 63.6114C257.004 65.4461 259.393 66.3634 262.422 66.3634C265.537 66.3634 267.99 65.4034 269.782 63.4834C271.574 61.5634 272.47 58.7687 272.47 55.0994V35.8354H278.294ZM293.952 41.5314C294.976 39.5261 296.426 37.9687 298.304 36.8594C300.224 35.7501 302.549 35.1954 305.28 35.1954V41.2114H303.744C297.216 41.2114 293.952 44.7527 293.952 51.8354V70.9074H288.128V35.8354H293.952V41.5314ZM343.209 71.3554C340.265 71.3554 337.62 70.8434 335.273 69.8194C332.969 68.7527 331.156 67.3021 329.833 65.4674C328.511 63.5901 327.828 61.4354 327.785 59.0034H333.993C334.207 61.0941 335.06 62.8647 336.553 64.3154C338.089 65.7234 340.308 66.4274 343.209 66.4274C345.983 66.4274 348.159 65.7447 349.737 64.3794C351.359 62.9714 352.169 61.1794 352.169 59.0034C352.169 57.2967 351.7 55.9101 350.761 54.8434C349.823 53.7767 348.649 52.9661 347.241 52.4114C345.833 51.8567 343.935 51.2594 341.545 50.6194C338.601 49.8514 336.233 49.0834 334.441 48.3154C332.692 47.5474 331.177 46.3527 329.897 44.7314C328.66 43.0674 328.041 40.8487 328.041 38.0754C328.041 35.6434 328.66 33.4887 329.897 31.6114C331.135 29.7341 332.863 28.2834 335.081 27.2594C337.343 26.2354 339.924 25.7234 342.825 25.7234C347.007 25.7234 350.42 26.7687 353.065 28.8594C355.753 30.9501 357.268 33.7234 357.609 37.1794H351.209C350.996 35.4727 350.1 33.9794 348.521 32.6994C346.943 31.3767 344.852 30.7154 342.249 30.7154C339.817 30.7154 337.833 31.3554 336.297 32.6354C334.761 33.8727 333.993 35.6221 333.993 37.8834C333.993 39.5047 334.441 40.8274 335.337 41.8514C336.276 42.8754 337.407 43.6647 338.729 44.2194C340.095 44.7314 341.993 45.3287 344.425 46.0114C347.369 46.8221 349.737 47.6327 351.529 48.4434C353.321 49.2114 354.857 50.4274 356.137 52.0914C357.417 53.7127 358.057 55.9314 358.057 58.7474C358.057 60.9234 357.481 62.9714 356.329 64.8914C355.177 66.8114 353.471 68.3687 351.209 69.5634C348.948 70.7581 346.281 71.3554 343.209 71.3554ZM373.732 40.6354V61.3074C373.732 63.0141 374.094 64.2301 374.82 64.9554C375.545 65.6381 376.804 65.9794 378.596 65.9794H382.884V70.9074H377.636C374.393 70.9074 371.961 70.1607 370.34 68.6674C368.718 67.1741 367.908 64.7207 367.908 61.3074V40.6354H363.364V35.8354H367.908V27.0034H373.732V35.8354H382.884V40.6354H373.732ZM405.236 71.4834C401.951 71.4834 398.964 70.7367 396.276 69.2434C393.631 67.7501 391.54 65.6381 390.004 62.9074C388.511 60.1341 387.764 56.9341 387.764 53.3074C387.764 49.7234 388.532 46.5661 390.068 43.8354C391.647 41.0621 393.78 38.9501 396.468 37.4994C399.156 36.0061 402.164 35.2594 405.492 35.2594C408.82 35.2594 411.828 36.0061 414.516 37.4994C417.204 38.9501 419.316 41.0407 420.852 43.7714C422.431 46.5021 423.22 49.6807 423.22 53.3074C423.22 56.9341 422.41 60.1341 420.788 62.9074C419.21 65.6381 417.055 67.7501 414.324 69.2434C411.594 70.7367 408.564 71.4834 405.236 71.4834ZM405.236 66.3634C407.327 66.3634 409.29 65.8727 411.124 64.8914C412.959 63.9101 414.431 62.4381 415.54 60.4754C416.692 58.5127 417.268 56.1234 417.268 53.3074C417.268 50.4914 416.714 48.1021 415.604 46.1394C414.495 44.1767 413.044 42.7261 411.252 41.7874C409.46 40.8061 407.519 40.3154 405.428 40.3154C403.295 40.3154 401.332 40.8061 399.54 41.7874C397.791 42.7261 396.383 44.1767 395.316 46.1394C394.25 48.1021 393.716 50.4914 393.716 53.3074C393.716 56.1661 394.228 58.5767 395.252 60.5394C396.319 62.5021 397.727 63.9741 399.476 64.9554C401.226 65.8941 403.146 66.3634 405.236 66.3634ZM436.702 41.5314C437.726 39.5261 439.176 37.9687 441.054 36.8594C442.974 35.7501 445.299 35.1954 448.03 35.1954V41.2114H446.494C439.966 41.2114 436.702 44.7527 436.702 51.8354V70.9074H430.878V35.8354H436.702V41.5314ZM484.961 35.8354L463.841 87.4194H457.825L464.737 70.5234L450.593 35.8354H457.057L468.065 64.2514L478.945 35.8354H484.961Z" fill="#2D2241"/>
<path fill-rule="evenodd" clip-rule="evenodd" d="M155.621 119.6C152.698 159.744 119.202 191.405 78.3122 191.405C35.5014 191.405 0.796326 156.7 0.796326 113.889C0.796326 71.078 35.5014 36.373 78.3122 36.373C119.261 36.373 152.794 68.1253 155.633 108.352H1323.2V119.6H155.621ZM145.629 113.889C145.629 151.067 115.49 181.205 78.3122 181.205C41.1344 181.205 10.9958 151.067 10.9958 113.889C10.9958 76.711 41.1344 46.5724 78.3122 46.5724C115.49 46.5724 145.629 76.711 145.629 113.889Z" fill="#2BD3DE"/>
<path d="M79.7356 83.1984C62.7876 83.1984 49.0451 96.9409 49.0451 113.889H38.8149L52.08 127.154L52.3187 127.631L66.0953 113.889H55.8652C55.8652 100.692 66.5387 90.0185 79.7356 90.0185C92.9324 90.0185 103.606 100.692 103.606 113.889C103.606 127.086 92.9324 137.759 79.7356 137.759C73.1542 137.759 67.1866 135.065 62.8899 130.735L58.0476 135.577C63.606 141.135 71.2445 144.579 79.7356 144.579C96.6835 144.579 110.426 130.837 110.426 113.889C110.426 96.9409 96.6835 83.1984 79.7356 83.1984ZM76.3255 100.249V117.299L90.9205 125.96L93.3758 121.834L81.4406 114.741V100.249H76.3255Z" fill="#2BD3DE"/>
</svg>
