<svg width="1324" height="192" viewBox="0 0 1324 192" fill="none" xmlns="http://www.w3.org/2000/svg">
<path d="M217.102 71.3554C212.963 71.3554 209.187 70.3954 205.774 68.4754C202.36 66.5127 199.651 63.8034 197.646 60.3474C195.683 56.8487 194.702 52.9234 194.702 48.5714C194.702 44.2194 195.683 40.3154 197.646 36.8594C199.651 33.3607 202.36 30.6514 205.774 28.7314C209.187 26.7687 212.963 25.7874 217.102 25.7874C221.283 25.7874 225.08 26.7687 228.494 28.7314C231.907 30.6514 234.595 33.3394 236.558 36.7954C238.52 40.2514 239.502 44.1767 239.502 48.5714C239.502 52.9661 238.52 56.8914 236.558 60.3474C234.595 63.8034 231.907 66.5127 228.494 68.4754C225.08 70.3954 221.283 71.3554 217.102 71.3554ZM217.102 66.2994C220.216 66.2994 223.011 65.5741 225.486 64.1234C228.003 62.6727 229.966 60.6034 231.374 57.9154C232.824 55.2274 233.55 52.1127 233.55 48.5714C233.55 44.9874 232.824 41.8727 231.374 39.2274C229.966 36.5394 228.024 34.4701 225.55 33.0194C223.075 31.5687 220.259 30.8434 217.102 30.8434C213.944 30.8434 211.128 31.5687 208.654 33.0194C206.179 34.4701 204.216 36.5394 202.766 39.2274C201.358 41.8727 200.654 44.9874 200.654 48.5714C200.654 52.1127 201.358 55.2274 202.766 57.9154C204.216 60.6034 206.179 62.6727 208.654 64.1234C211.171 65.5741 213.987 66.2994 217.102 66.2994ZM278.294 35.8354V70.9074H272.47V65.7234C271.361 67.5154 269.804 68.9234 267.798 69.9474C265.836 70.9287 263.66 71.4194 261.27 71.4194C258.54 71.4194 256.086 70.8647 253.91 69.7554C251.734 68.6034 250.006 66.8967 248.726 64.6354C247.489 62.3741 246.87 59.6221 246.87 56.3794V35.8354H252.63V55.6114C252.63 59.0674 253.505 61.7341 255.254 63.6114C257.004 65.4461 259.393 66.3634 262.422 66.3634C265.537 66.3634 267.99 65.4034 269.782 63.4834C271.574 61.5634 272.47 58.7687 272.47 55.0994V35.8354H278.294ZM293.952 41.5314C294.976 39.5261 296.426 37.9687 298.304 36.8594C300.224 35.7501 302.549 35.1954 305.28 35.1954V41.2114H303.744C297.216 41.2114 293.952 44.7527 293.952 51.8354V70.9074H288.128V35.8354H293.952V41.5314ZM336.169 40.6354V61.3074C336.169 63.0141 336.532 64.2301 337.257 64.9554C337.983 65.6381 339.241 65.9794 341.033 65.9794H345.321V70.9074H340.073C336.831 70.9074 334.399 70.1607 332.777 68.6674C331.156 67.1741 330.345 64.7207 330.345 61.3074V40.6354H325.801V35.8354H330.345V27.0034H336.169V35.8354H345.321V40.6354H336.169ZM384.378 52.0274C384.378 53.1367 384.314 54.3101 384.186 55.5474H356.154C356.367 59.0034 357.54 61.7127 359.674 63.6754C361.85 65.5954 364.474 66.5554 367.546 66.5554C370.063 66.5554 372.154 65.9794 373.818 64.8274C375.524 63.6327 376.719 62.0541 377.402 60.0914H383.674C382.735 63.4621 380.858 66.2141 378.042 68.3474C375.226 70.4381 371.727 71.4834 367.546 71.4834C364.218 71.4834 361.231 70.7367 358.586 69.2434C355.983 67.7501 353.935 65.6381 352.442 62.9074C350.948 60.1341 350.202 56.9341 350.202 53.3074C350.202 49.6807 350.927 46.5021 352.378 43.7714C353.828 41.0407 355.855 38.9501 358.458 37.4994C361.103 36.0061 364.132 35.2594 367.546 35.2594C370.874 35.2594 373.818 35.9847 376.378 37.4354C378.938 38.8861 380.9 40.8914 382.266 43.4514C383.674 45.9687 384.378 48.8274 384.378 52.0274ZM378.362 50.8114C378.362 48.5927 377.871 46.6941 376.89 45.1154C375.908 43.4941 374.564 42.2781 372.858 41.4674C371.194 40.6141 369.338 40.1874 367.29 40.1874C364.346 40.1874 361.828 41.1261 359.738 43.0034C357.69 44.8807 356.516 47.4834 356.218 50.8114H378.362ZM389.889 53.2434C389.889 49.6594 390.615 46.5234 392.065 43.8354C393.516 41.1047 395.5 38.9927 398.017 37.4994C400.577 36.0061 403.415 35.2594 406.529 35.2594C409.601 35.2594 412.268 35.9207 414.529 37.2434C416.791 38.5661 418.476 40.2301 419.585 42.2354V35.8354H425.473V70.9074H419.585V64.3794C418.433 66.4274 416.705 68.1341 414.401 69.4994C412.14 70.8221 409.495 71.4834 406.465 71.4834C403.351 71.4834 400.535 70.7154 398.017 69.1794C395.5 67.6434 393.516 65.4887 392.065 62.7154C390.615 59.9421 389.889 56.7847 389.889 53.2434ZM419.585 53.3074C419.585 50.6621 419.052 48.3581 417.985 46.3954C416.919 44.4327 415.468 42.9394 413.633 41.9154C411.841 40.8487 409.857 40.3154 407.681 40.3154C405.505 40.3154 403.521 40.8274 401.729 41.8514C399.937 42.8754 398.508 44.3687 397.441 46.3314C396.375 48.2941 395.841 50.5981 395.841 53.2434C395.841 55.9314 396.375 58.2781 397.441 60.2834C398.508 62.2461 399.937 63.7607 401.729 64.8274C403.521 65.8514 405.505 66.3634 407.681 66.3634C409.857 66.3634 411.841 65.8514 413.633 64.8274C415.468 63.7607 416.919 62.2461 417.985 60.2834C419.052 58.2781 419.585 55.9527 419.585 53.3074ZM477.491 35.1954C480.222 35.1954 482.654 35.7714 484.787 36.9234C486.921 38.0327 488.606 39.7181 489.843 41.9794C491.081 44.2407 491.699 46.9927 491.699 50.2354V70.9074H485.939V51.0674C485.939 47.5687 485.065 44.9021 483.315 43.0674C481.609 41.1901 479.283 40.2514 476.339 40.2514C473.31 40.2514 470.899 41.2327 469.107 43.1954C467.315 45.1154 466.419 47.9101 466.419 51.5794V70.9074H460.659V51.0674C460.659 47.5687 459.785 44.9021 458.035 43.0674C456.329 41.1901 454.003 40.2514 451.059 40.2514C448.03 40.2514 445.619 41.2327 443.827 43.1954C442.035 45.1154 441.139 47.9101 441.139 51.5794V70.9074H435.315V35.8354H441.139V40.8914C442.291 39.0567 443.827 37.6487 445.747 36.6674C447.71 35.6861 449.865 35.1954 452.211 35.1954C455.155 35.1954 457.758 35.8567 460.019 37.1794C462.281 38.5021 463.966 40.4434 465.075 43.0034C466.057 40.5287 467.678 38.6087 469.939 37.2434C472.201 35.8781 474.718 35.1954 477.491 35.1954Z" fill="#2D2241"/>
<path fill-rule="evenodd" clip-rule="evenodd" d="M155.621 119.6C152.698 159.744 119.202 191.405 78.3123 191.405C35.5014 191.405 0.796387 156.7 0.796387 113.889C0.796387 71.078 35.5014 36.373 78.3123 36.373C119.261 36.373 152.794 68.1253 155.633 108.352H1323.2V119.6H155.621ZM145.629 113.889C145.629 151.067 115.49 181.205 78.3123 181.205C41.1345 181.205 10.9959 151.067 10.9959 113.889C10.9959 76.711 41.1345 46.5724 78.3123 46.5724C115.49 46.5724 145.629 76.711 145.629 113.889Z" fill="#25A3B5"/>
<path d="M93.5093 109.889C100.149 109.889 105.469 104.529 105.469 97.8889C105.469 91.2489 100.149 85.8889 93.5093 85.8889C86.8693 85.8889 81.5093 91.2489 81.5093 97.8889C81.5093 104.529 86.8693 109.889 93.5093 109.889ZM61.5093 109.889C68.1493 109.889 73.4693 104.529 73.4693 97.8889C73.4693 91.2489 68.1493 85.8889 61.5093 85.8889C54.8693 85.8889 49.5093 91.2489 49.5093 97.8889C49.5093 104.529 54.8693 109.889 61.5093 109.889ZM61.5093 117.889C52.1893 117.889 33.5093 122.569 33.5093 131.889V141.889H89.5093V131.889C89.5093 122.569 70.8293 117.889 61.5093 117.889ZM93.5093 117.889C92.3493 117.889 91.0293 117.969 89.6293 118.089C94.2693 121.449 97.5093 125.969 97.5093 131.889V141.889H121.509V131.889C121.509 122.569 102.829 117.889 93.5093 117.889Z" fill="#25A3B5"/>
</svg>
