<svg width="1324" height="192" viewBox="0 0 1324 192" fill="none" xmlns="http://www.w3.org/2000/svg">
<path d="M252.942 26.2994L240.014 70.9074H233.486L223.118 35.0034L212.366 70.9074L205.902 70.9714L193.422 26.2994H199.63L209.358 64.1234L220.11 26.2994H226.638L236.878 63.9954L246.67 26.2994H252.942ZM276.723 35.1954C279.369 35.1954 281.758 35.7714 283.891 36.9234C286.025 38.0327 287.689 39.7181 288.883 41.9794C290.121 44.2407 290.739 46.9927 290.739 50.2354V70.9074H284.979V51.0674C284.979 47.5687 284.105 44.9021 282.355 43.0674C280.606 41.1901 278.217 40.2514 275.187 40.2514C272.115 40.2514 269.662 41.2114 267.827 43.1314C266.035 45.0514 265.139 47.8461 265.139 51.5154V70.9074H259.315V23.5474H265.139V40.8274C266.291 39.0354 267.87 37.6487 269.875 36.6674C271.923 35.6861 274.206 35.1954 276.723 35.1954ZM298.077 53.2434C298.077 49.6594 298.802 46.5234 300.253 43.8354C301.703 41.1047 303.687 38.9927 306.205 37.4994C308.765 36.0061 311.602 35.2594 314.717 35.2594C317.789 35.2594 320.455 35.9207 322.717 37.2434C324.978 38.5661 326.663 40.2301 327.773 42.2354V35.8354H333.661V70.9074H327.773V64.3794C326.621 66.4274 324.893 68.1341 322.589 69.4994C320.327 70.8221 317.682 71.4834 314.653 71.4834C311.538 71.4834 308.722 70.7154 306.205 69.1794C303.687 67.6434 301.703 65.4887 300.253 62.7154C298.802 59.9421 298.077 56.7847 298.077 53.2434ZM327.773 53.3074C327.773 50.6621 327.239 48.3581 326.173 46.3954C325.106 44.4327 323.655 42.9394 321.821 41.9154C320.029 40.8487 318.045 40.3154 315.869 40.3154C313.693 40.3154 311.709 40.8274 309.917 41.8514C308.125 42.8754 306.695 44.3687 305.629 46.3314C304.562 48.2941 304.029 50.5981 304.029 53.2434C304.029 55.9314 304.562 58.2781 305.629 60.2834C306.695 62.2461 308.125 63.7607 309.917 64.8274C311.709 65.8514 313.693 66.3634 315.869 66.3634C318.045 66.3634 320.029 65.8514 321.821 64.8274C323.655 63.7607 325.106 62.2461 326.173 60.2834C327.239 58.2781 327.773 55.9527 327.773 53.3074ZM350.607 40.6354V61.3074C350.607 63.0141 350.969 64.2301 351.695 64.9554C352.42 65.6381 353.679 65.9794 355.471 65.9794H359.759V70.9074H354.511C351.268 70.9074 348.836 70.1607 347.215 68.6674C345.593 67.1741 344.783 64.7207 344.783 61.3074V40.6354H340.239V35.8354H344.783V27.0034H350.607V35.8354H359.759V40.6354H350.607ZM381.702 53.3074C381.702 49.6807 382.427 46.5234 383.878 43.8354C385.328 41.1047 387.334 38.9927 389.894 37.4994C392.496 36.0061 395.462 35.2594 398.79 35.2594C403.099 35.2594 406.64 36.3047 409.414 38.3954C412.23 40.4861 414.086 43.3874 414.982 47.0994H408.71C408.112 44.9661 406.939 43.2807 405.19 42.0434C403.483 40.8061 401.35 40.1874 398.79 40.1874C395.462 40.1874 392.774 41.3394 390.726 43.6434C388.678 45.9047 387.654 49.1261 387.654 53.3074C387.654 57.5314 388.678 60.7954 390.726 63.0994C392.774 65.4034 395.462 66.5554 398.79 66.5554C401.35 66.5554 403.483 65.9581 405.19 64.7634C406.896 63.5687 408.07 61.8621 408.71 59.6434H414.982C414.043 63.2274 412.166 66.1074 409.35 68.2834C406.534 70.4167 403.014 71.4834 398.79 71.4834C395.462 71.4834 392.496 70.7367 389.894 69.2434C387.334 67.7501 385.328 65.6381 383.878 62.9074C382.427 60.1767 381.702 56.9767 381.702 53.3074ZM420.577 53.2434C420.577 49.6594 421.302 46.5234 422.753 43.8354C424.203 41.1047 426.187 38.9927 428.705 37.4994C431.265 36.0061 434.102 35.2594 437.217 35.2594C440.289 35.2594 442.955 35.9207 445.217 37.2434C447.478 38.5661 449.163 40.2301 450.273 42.2354V35.8354H456.161V70.9074H450.273V64.3794C449.121 66.4274 447.393 68.1341 445.089 69.4994C442.827 70.8221 440.182 71.4834 437.153 71.4834C434.038 71.4834 431.222 70.7154 428.705 69.1794C426.187 67.6434 424.203 65.4887 422.753 62.7154C421.302 59.9421 420.577 56.7847 420.577 53.2434ZM450.273 53.3074C450.273 50.6621 449.739 48.3581 448.673 46.3954C447.606 44.4327 446.155 42.9394 444.321 41.9154C442.529 40.8487 440.545 40.3154 438.369 40.3154C436.193 40.3154 434.209 40.8274 432.417 41.8514C430.625 42.8754 429.195 44.3687 428.129 46.3314C427.062 48.2941 426.529 50.5981 426.529 53.2434C426.529 55.9314 427.062 58.2781 428.129 60.2834C429.195 62.2461 430.625 63.7607 432.417 64.8274C434.209 65.8514 436.193 66.3634 438.369 66.3634C440.545 66.3634 442.529 65.8514 444.321 64.8274C446.155 63.7607 447.606 62.2461 448.673 60.2834C449.739 58.2781 450.273 55.9527 450.273 53.3074ZM483.091 35.1954C487.357 35.1954 490.813 36.4967 493.459 39.0994C496.104 41.6594 497.427 45.3714 497.427 50.2354V70.9074H491.667V51.0674C491.667 47.5687 490.792 44.9021 489.043 43.0674C487.293 41.1901 484.904 40.2514 481.875 40.2514C478.803 40.2514 476.349 41.2114 474.515 43.1314C472.723 45.0514 471.827 47.8461 471.827 51.5154V70.9074H466.003V35.8354H471.827V40.8274C472.979 39.0354 474.536 37.6487 476.499 36.6674C478.504 35.6861 480.701 35.1954 483.091 35.1954ZM570.723 35.8354L559.779 70.9074H553.763L545.315 43.0674L536.867 70.9074H530.851L519.843 35.8354H525.795L533.859 65.2754L542.563 35.8354H548.515L557.027 65.3394L564.963 35.8354H570.723ZM608.503 52.0274C608.503 53.1367 608.439 54.3101 608.311 55.5474H580.279C580.492 59.0034 581.665 61.7127 583.799 63.6754C585.975 65.5954 588.599 66.5554 591.671 66.5554C594.188 66.5554 596.279 65.9794 597.943 64.8274C599.649 63.6327 600.844 62.0541 601.527 60.0914H607.799C606.86 63.4621 604.983 66.2141 602.167 68.3474C599.351 70.4381 595.852 71.4834 591.671 71.4834C588.343 71.4834 585.356 70.7367 582.711 69.2434C580.108 67.7501 578.06 65.6381 576.567 62.9074C575.073 60.1341 574.327 56.9341 574.327 53.3074C574.327 49.6807 575.052 46.5021 576.503 43.7714C577.953 41.0407 579.98 38.9501 582.583 37.4994C585.228 36.0061 588.257 35.2594 591.671 35.2594C594.999 35.2594 597.943 35.9847 600.503 37.4354C603.063 38.8861 605.025 40.8914 606.391 43.4514C607.799 45.9687 608.503 48.8274 608.503 52.0274ZM602.487 50.8114C602.487 48.5927 601.996 46.6941 601.015 45.1154C600.033 43.4941 598.689 42.2781 596.983 41.4674C595.319 40.6141 593.463 40.1874 591.415 40.1874C588.471 40.1874 585.953 41.1261 583.863 43.0034C581.815 44.8807 580.641 47.4834 580.343 50.8114H602.487ZM631.077 53.2434C631.077 49.6594 631.802 46.5234 633.253 43.8354C634.703 41.1047 636.687 38.9927 639.205 37.4994C641.765 36.0061 644.623 35.2594 647.781 35.2594C650.511 35.2594 653.05 35.8994 655.397 37.1794C657.743 38.4167 659.535 40.0594 660.773 42.1074V23.5474H666.661V70.9074H660.773V64.3154C659.621 66.4061 657.914 68.1341 655.653 69.4994C653.391 70.8221 650.746 71.4834 647.717 71.4834C644.602 71.4834 641.765 70.7154 639.205 69.1794C636.687 67.6434 634.703 65.4887 633.253 62.7154C631.802 59.9421 631.077 56.7847 631.077 53.2434ZM660.773 53.3074C660.773 50.6621 660.239 48.3581 659.173 46.3954C658.106 44.4327 656.655 42.9394 654.821 41.9154C653.029 40.8487 651.045 40.3154 648.869 40.3154C646.693 40.3154 644.709 40.8274 642.917 41.8514C641.125 42.8754 639.695 44.3687 638.629 46.3314C637.562 48.2941 637.029 50.5981 637.029 53.2434C637.029 55.9314 637.562 58.2781 638.629 60.2834C639.695 62.2461 641.125 63.7607 642.917 64.8274C644.709 65.8514 646.693 66.3634 648.869 66.3634C651.045 66.3634 653.029 65.8514 654.821 64.8274C656.655 63.7607 658.106 62.2461 659.173 60.2834C660.239 58.2781 660.773 55.9527 660.773 53.3074ZM691.799 71.4834C688.513 71.4834 685.527 70.7367 682.839 69.2434C680.193 67.7501 678.103 65.6381 676.567 62.9074C675.073 60.1341 674.327 56.9341 674.327 53.3074C674.327 49.7234 675.095 46.5661 676.631 43.8354C678.209 41.0621 680.343 38.9501 683.031 37.4994C685.719 36.0061 688.727 35.2594 692.055 35.2594C695.383 35.2594 698.391 36.0061 701.079 37.4994C703.767 38.9501 705.879 41.0407 707.415 43.7714C708.993 46.5021 709.783 49.6807 709.783 53.3074C709.783 56.9341 708.972 60.1341 707.351 62.9074C705.772 65.6381 703.617 67.7501 700.887 69.2434C698.156 70.7367 695.127 71.4834 691.799 71.4834ZM691.799 66.3634C693.889 66.3634 695.852 65.8727 697.687 64.8914C699.521 63.9101 700.993 62.4381 702.103 60.4754C703.255 58.5127 703.831 56.1234 703.831 53.3074C703.831 50.4914 703.276 48.1021 702.167 46.1394C701.057 44.1767 699.607 42.7261 697.815 41.7874C696.023 40.8061 694.081 40.3154 691.991 40.3154C689.857 40.3154 687.895 40.8061 686.103 41.7874C684.353 42.7261 682.945 44.1767 681.879 46.1394C680.812 48.1021 680.279 50.4914 680.279 53.3074C680.279 56.1661 680.791 58.5767 681.815 60.5394C682.881 62.5021 684.289 63.9741 686.039 64.9554C687.788 65.8941 689.708 66.3634 691.799 66.3634ZM748.775 40.6354H741.415V70.9074H735.591V40.6354H731.047V35.8354H735.591V33.3394C735.591 29.4141 736.593 26.5554 738.599 24.7634C740.647 22.9287 743.911 22.0114 748.391 22.0114V26.8754C745.831 26.8754 744.017 27.3874 742.951 28.4114C741.927 29.3927 741.415 31.0354 741.415 33.3394V35.8354H748.775V40.6354ZM770.861 71.4834C767.576 71.4834 764.589 70.7367 761.901 69.2434C759.256 67.7501 757.165 65.6381 755.629 62.9074C754.136 60.1341 753.389 56.9341 753.389 53.3074C753.389 49.7234 754.157 46.5661 755.693 43.8354C757.272 41.0621 759.405 38.9501 762.093 37.4994C764.781 36.0061 767.789 35.2594 771.117 35.2594C774.445 35.2594 777.453 36.0061 780.141 37.4994C782.829 38.9501 784.941 41.0407 786.477 43.7714C788.056 46.5021 788.845 49.6807 788.845 53.3074C788.845 56.9341 788.035 60.1341 786.413 62.9074C784.835 65.6381 782.68 67.7501 779.949 69.2434C777.219 70.7367 774.189 71.4834 770.861 71.4834ZM770.861 66.3634C772.952 66.3634 774.915 65.8727 776.749 64.8914C778.584 63.9101 780.056 62.4381 781.165 60.4754C782.317 58.5127 782.893 56.1234 782.893 53.3074C782.893 50.4914 782.339 48.1021 781.229 46.1394C780.12 44.1767 778.669 42.7261 776.877 41.7874C775.085 40.8061 773.144 40.3154 771.053 40.3154C768.92 40.3154 766.957 40.8061 765.165 41.7874C763.416 42.7261 762.008 44.1767 760.941 46.1394C759.875 48.1021 759.341 50.4914 759.341 53.3074C759.341 56.1661 759.853 58.5767 760.877 60.5394C761.944 62.5021 763.352 63.9741 765.101 64.9554C766.851 65.8941 768.771 66.3634 770.861 66.3634ZM802.327 41.5314C803.351 39.5261 804.801 37.9687 806.679 36.8594C808.599 35.7501 810.924 35.1954 813.655 35.1954V41.2114H812.119C805.591 41.2114 802.327 44.7527 802.327 51.8354V70.9074H796.503V35.8354H802.327V41.5314ZM867.648 35.8354L846.528 87.4194H840.512L847.424 70.5234L833.28 35.8354H839.744L850.752 64.2514L861.632 35.8354H867.648ZM888.799 71.4834C885.513 71.4834 882.527 70.7367 879.839 69.2434C877.193 67.7501 875.103 65.6381 873.567 62.9074C872.073 60.1341 871.327 56.9341 871.327 53.3074C871.327 49.7234 872.095 46.5661 873.631 43.8354C875.209 41.0621 877.343 38.9501 880.031 37.4994C882.719 36.0061 885.727 35.2594 889.055 35.2594C892.383 35.2594 895.391 36.0061 898.079 37.4994C900.767 38.9501 902.879 41.0407 904.415 43.7714C905.993 46.5021 906.783 49.6807 906.783 53.3074C906.783 56.9341 905.972 60.1341 904.351 62.9074C902.772 65.6381 900.617 67.7501 897.887 69.2434C895.156 70.7367 892.127 71.4834 888.799 71.4834ZM888.799 66.3634C890.889 66.3634 892.852 65.8727 894.687 64.8914C896.521 63.9101 897.993 62.4381 899.103 60.4754C900.255 58.5127 900.831 56.1234 900.831 53.3074C900.831 50.4914 900.276 48.1021 899.167 46.1394C898.057 44.1767 896.607 42.7261 894.815 41.7874C893.023 40.8061 891.081 40.3154 888.991 40.3154C886.857 40.3154 884.895 40.8061 883.103 41.7874C881.353 42.7261 879.945 44.1767 878.879 46.1394C877.812 48.1021 877.279 50.4914 877.279 53.3074C877.279 56.1661 877.791 58.5767 878.815 60.5394C879.881 62.5021 881.289 63.9741 883.039 64.9554C884.788 65.8941 886.708 66.3634 888.799 66.3634ZM945.544 35.8354V70.9074H939.72V65.7234C938.611 67.5154 937.054 68.9234 935.048 69.9474C933.086 70.9287 930.91 71.4194 928.52 71.4194C925.79 71.4194 923.336 70.8647 921.16 69.7554C918.984 68.6034 917.256 66.8967 915.976 64.6354C914.739 62.3741 914.12 59.6221 914.12 56.3794V35.8354H919.88V55.6114C919.88 59.0674 920.755 61.7341 922.504 63.6114C924.254 65.4461 926.643 66.3634 929.672 66.3634C932.787 66.3634 935.24 65.4034 937.032 63.4834C938.824 61.5634 939.72 58.7687 939.72 55.0994V35.8354H945.544ZM966.77 25.7234C970.994 25.7234 974.407 26.9181 977.01 29.3074C979.612 31.6967 980.914 34.8967 980.914 38.9074C980.914 43.3874 979.527 46.7154 976.754 48.8914C973.98 51.0247 970.226 52.0914 965.49 52.0914L965.298 58.1714H960.242L959.986 48.0594H961.842C966.066 48.0594 969.372 47.4194 971.762 46.1394C974.151 44.8594 975.346 42.4487 975.346 38.9074C975.346 36.3474 974.578 34.3207 973.042 32.8274C971.506 31.3341 969.436 30.5874 966.834 30.5874C964.188 30.5874 962.098 31.3127 960.562 32.7634C959.068 34.1714 958.322 36.1127 958.322 38.5874H952.818C952.818 36.0274 953.394 33.7874 954.546 31.8674C955.698 29.9047 957.319 28.3901 959.41 27.3234C961.543 26.2567 963.996 25.7234 966.77 25.7234ZM962.738 71.2914C961.628 71.2914 960.69 70.9074 959.922 70.1394C959.154 69.3714 958.77 68.4327 958.77 67.3234C958.77 66.2141 959.154 65.2754 959.922 64.5074C960.69 63.7394 961.628 63.3554 962.738 63.3554C963.804 63.3554 964.7 63.7394 965.426 64.5074C966.194 65.2754 966.578 66.2141 966.578 67.3234C966.578 68.4327 966.194 69.3714 965.426 70.1394C964.7 70.9074 963.804 71.2914 962.738 71.2914Z" fill="#2D2241"/>
<path fill-rule="evenodd" clip-rule="evenodd" d="M155.621 119.6C152.698 159.744 119.202 191.405 78.3123 191.405C35.5014 191.405 0.796387 156.7 0.796387 113.889C0.796387 71.078 35.5014 36.373 78.3123 36.373C119.261 36.373 152.794 68.1253 155.633 108.352H1323.2V119.6H155.621ZM145.629 113.889C145.629 151.067 115.49 181.205 78.3123 181.205C41.1345 181.205 10.9959 151.067 10.9959 113.889C10.9959 76.711 41.1345 46.5724 78.3123 46.5724C115.49 46.5724 145.629 76.711 145.629 113.889Z" fill="#E45EFA"/>
<path d="M104.843 83.8889H58.1759C54.5093 83.8889 51.5093 86.8889 51.5093 90.5556V137.222C51.5093 140.889 54.5093 143.889 58.1759 143.889H71.5093L81.5093 153.889L91.5093 143.889H104.843C108.509 143.889 111.509 140.889 111.509 137.222V90.5556C111.509 86.8889 108.509 83.8889 104.843 83.8889ZM87.7759 120.156L81.5093 133.889L75.2426 120.156L61.5093 113.889L75.2426 107.622L81.5093 93.8889L87.7759 107.622L101.509 113.889L87.7759 120.156V120.156Z" fill="#E45EFA"/>
</svg>
