<svg width="1324" height="192" viewBox="0 0 1324 192" fill="none" xmlns="http://www.w3.org/2000/svg">
<path d="M217.102 71.3554C212.963 71.3554 209.187 70.3954 205.774 68.4754C202.36 66.5127 199.651 63.8034 197.646 60.3474C195.683 56.8487 194.702 52.9234 194.702 48.5714C194.702 44.2194 195.683 40.3154 197.646 36.8594C199.651 33.3607 202.36 30.6514 205.774 28.7314C209.187 26.7687 212.963 25.7874 217.102 25.7874C221.283 25.7874 225.08 26.7687 228.494 28.7314C231.907 30.6514 234.595 33.3394 236.558 36.7954C238.52 40.2514 239.502 44.1767 239.502 48.5714C239.502 52.9661 238.52 56.8914 236.558 60.3474C234.595 63.8034 231.907 66.5127 228.494 68.4754C225.08 70.3954 221.283 71.3554 217.102 71.3554ZM217.102 66.2994C220.216 66.2994 223.011 65.5741 225.486 64.1234C228.003 62.6727 229.966 60.6034 231.374 57.9154C232.824 55.2274 233.55 52.1127 233.55 48.5714C233.55 44.9874 232.824 41.8727 231.374 39.2274C229.966 36.5394 228.024 34.4701 225.55 33.0194C223.075 31.5687 220.259 30.8434 217.102 30.8434C213.944 30.8434 211.128 31.5687 208.654 33.0194C206.179 34.4701 204.216 36.5394 202.766 39.2274C201.358 41.8727 200.654 44.9874 200.654 48.5714C200.654 52.1127 201.358 55.2274 202.766 57.9154C204.216 60.6034 206.179 62.6727 208.654 64.1234C211.171 65.5741 213.987 66.2994 217.102 66.2994ZM278.294 35.8354V70.9074H272.47V65.7234C271.361 67.5154 269.804 68.9234 267.798 69.9474C265.836 70.9287 263.66 71.4194 261.27 71.4194C258.54 71.4194 256.086 70.8647 253.91 69.7554C251.734 68.6034 250.006 66.8967 248.726 64.6354C247.489 62.3741 246.87 59.6221 246.87 56.3794V35.8354H252.63V55.6114C252.63 59.0674 253.505 61.7341 255.254 63.6114C257.004 65.4461 259.393 66.3634 262.422 66.3634C265.537 66.3634 267.99 65.4034 269.782 63.4834C271.574 61.5634 272.47 58.7687 272.47 55.0994V35.8354H278.294ZM293.952 41.5314C294.976 39.5261 296.426 37.9687 298.304 36.8594C300.224 35.7501 302.549 35.1954 305.28 35.1954V41.2114H303.744C297.216 41.2114 293.952 44.7527 293.952 51.8354V70.9074H288.128V35.8354H293.952V41.5314ZM385.129 26.2994L372.201 70.9074H365.673L355.305 35.0034L344.553 70.9074L338.089 70.9714L325.609 26.2994H331.817L341.545 64.1234L352.297 26.2994H358.825L369.065 63.9954L378.857 26.2994H385.129ZM408.911 35.1954C411.556 35.1954 413.945 35.7714 416.079 36.9234C418.212 38.0327 419.876 39.7181 421.071 41.9794C422.308 44.2407 422.927 46.9927 422.927 50.2354V70.9074H417.167V51.0674C417.167 47.5687 416.292 44.9021 414.543 43.0674C412.793 41.1901 410.404 40.2514 407.375 40.2514C404.303 40.2514 401.849 41.2114 400.015 43.1314C398.223 45.0514 397.327 47.8461 397.327 51.5154V70.9074H391.503V23.5474H397.327V40.8274C398.479 39.0354 400.057 37.6487 402.063 36.6674C404.111 35.6861 406.393 35.1954 408.911 35.1954ZM462.648 35.8354L441.528 87.4194H435.512L442.424 70.5234L428.28 35.8354H434.744L445.752 64.2514L456.632 35.8354H462.648Z" fill="#2D2241"/>
<path fill-rule="evenodd" clip-rule="evenodd" d="M155.621 119.6C152.698 159.744 119.202 191.405 78.3122 191.405C35.5014 191.405 0.796326 156.7 0.796326 113.889C0.796326 71.078 35.5014 36.373 78.3122 36.373C119.261 36.373 152.794 68.1253 155.633 108.352H1323.2V119.6H155.621ZM145.629 113.889C145.629 151.067 115.49 181.205 78.3122 181.205C41.1344 181.205 10.9958 151.067 10.9958 113.889C10.9958 76.711 41.1344 46.5724 78.3122 46.5724C115.49 46.5724 145.629 76.711 145.629 113.889Z" fill="#73FA5E"/>
<path d="M74.3333 136H81.6666V128.667H74.3333V136ZM78 77.3333C57.76 77.3333 41.3333 93.76 41.3333 114C41.3333 134.24 57.76 150.667 78 150.667C98.24 150.667 114.667 134.24 114.667 114C114.667 93.76 98.24 77.3333 78 77.3333ZM78 143.333C61.83 143.333 48.6666 130.17 48.6666 114C48.6666 97.83 61.83 84.6667 78 84.6667C94.17 84.6667 107.333 97.83 107.333 114C107.333 130.17 94.17 143.333 78 143.333ZM78 92C69.8966 92 63.3333 98.5633 63.3333 106.667H70.6666C70.6666 102.633 73.9666 99.3333 78 99.3333C82.0333 99.3333 85.3333 102.633 85.3333 106.667C85.3333 114 74.3333 113.083 74.3333 125H81.6666C81.6666 116.75 92.6666 115.833 92.6666 106.667C92.6666 98.5633 86.1033 92 78 92Z" fill="#73FA5E"/>
</svg>
