<svg width="1324" height="192" viewBox="0 0 1324 192" fill="none" xmlns="http://www.w3.org/2000/svg">
<path d="M252.942 26.2994L240.014 70.9074H233.486L223.118 35.0034L212.366 70.9074L205.902 70.9714L193.422 26.2994H199.63L209.358 64.1234L220.11 26.2994H226.638L236.878 63.9954L246.67 26.2994H252.942ZM276.723 35.1954C279.369 35.1954 281.758 35.7714 283.891 36.9234C286.025 38.0327 287.689 39.7181 288.883 41.9794C290.121 44.2407 290.739 46.9927 290.739 50.2354V70.9074H284.979V51.0674C284.979 47.5687 284.105 44.9021 282.355 43.0674C280.606 41.1901 278.217 40.2514 275.187 40.2514C272.115 40.2514 269.662 41.2114 267.827 43.1314C266.035 45.0514 265.139 47.8461 265.139 51.5154V70.9074H259.315V23.5474H265.139V40.8274C266.291 39.0354 267.87 37.6487 269.875 36.6674C271.923 35.6861 274.206 35.1954 276.723 35.1954ZM315.549 71.4834C312.263 71.4834 309.277 70.7367 306.589 69.2434C303.943 67.7501 301.853 65.6381 300.317 62.9074C298.823 60.1341 298.077 56.9341 298.077 53.3074C298.077 49.7234 298.845 46.5661 300.381 43.8354C301.959 41.0621 304.093 38.9501 306.781 37.4994C309.469 36.0061 312.477 35.2594 315.805 35.2594C319.133 35.2594 322.141 36.0061 324.829 37.4994C327.517 38.9501 329.629 41.0407 331.165 43.7714C332.743 46.5021 333.533 49.6807 333.533 53.3074C333.533 56.9341 332.722 60.1341 331.101 62.9074C329.522 65.6381 327.367 67.7501 324.637 69.2434C321.906 70.7367 318.877 71.4834 315.549 71.4834ZM315.549 66.3634C317.639 66.3634 319.602 65.8727 321.437 64.8914C323.271 63.9101 324.743 62.4381 325.853 60.4754C327.005 58.5127 327.581 56.1234 327.581 53.3074C327.581 50.4914 327.026 48.1021 325.917 46.1394C324.807 44.1767 323.357 42.7261 321.565 41.7874C319.773 40.8061 317.831 40.3154 315.741 40.3154C313.607 40.3154 311.645 40.8061 309.853 41.7874C308.103 42.7261 306.695 44.1767 305.629 46.1394C304.562 48.1021 304.029 50.4914 304.029 53.3074C304.029 56.1661 304.541 58.5767 305.565 60.5394C306.631 62.5021 308.039 63.9741 309.789 64.9554C311.538 65.8941 313.458 66.3634 315.549 66.3634ZM404.973 35.8354L394.029 70.9074H388.013L379.565 43.0674L371.117 70.9074H365.101L354.093 35.8354H360.045L368.109 65.2754L376.813 35.8354H382.765L391.277 65.3394L399.213 35.8354H404.973ZM442.753 52.0274C442.753 53.1367 442.689 54.3101 442.561 55.5474H414.529C414.742 59.0034 415.915 61.7127 418.049 63.6754C420.225 65.5954 422.849 66.5554 425.921 66.5554C428.438 66.5554 430.529 65.9794 432.193 64.8274C433.899 63.6327 435.094 62.0541 435.777 60.0914H442.049C441.11 63.4621 439.233 66.2141 436.417 68.3474C433.601 70.4381 430.102 71.4834 425.921 71.4834C422.593 71.4834 419.606 70.7367 416.961 69.2434C414.358 67.7501 412.31 65.6381 410.817 62.9074C409.323 60.1341 408.577 56.9341 408.577 53.3074C408.577 49.6807 409.302 46.5021 410.753 43.7714C412.203 41.0407 414.23 38.9501 416.833 37.4994C419.478 36.0061 422.507 35.2594 425.921 35.2594C429.249 35.2594 432.193 35.9847 434.753 37.4354C437.313 38.8861 439.275 40.8914 440.641 43.4514C442.049 45.9687 442.753 48.8274 442.753 52.0274ZM436.737 50.8114C436.737 48.5927 436.246 46.6941 435.265 45.1154C434.283 43.4941 432.939 42.2781 431.233 41.4674C429.569 40.6141 427.713 40.1874 425.665 40.1874C422.721 40.1874 420.203 41.1261 418.113 43.0034C416.065 44.8807 414.891 47.4834 414.593 50.8114H436.737ZM514.223 35.8354L503.279 70.9074H497.263L488.815 43.0674L480.367 70.9074H474.351L463.343 35.8354H469.295L477.359 65.2754L486.063 35.8354H492.015L500.527 65.3394L508.463 35.8354H514.223ZM535.299 71.4834C532.013 71.4834 529.027 70.7367 526.339 69.2434C523.693 67.7501 521.603 65.6381 520.067 62.9074C518.573 60.1341 517.827 56.9341 517.827 53.3074C517.827 49.7234 518.595 46.5661 520.131 43.8354C521.709 41.0621 523.843 38.9501 526.531 37.4994C529.219 36.0061 532.227 35.2594 535.555 35.2594C538.883 35.2594 541.891 36.0061 544.579 37.4994C547.267 38.9501 549.379 41.0407 550.915 43.7714C552.493 46.5021 553.283 49.6807 553.283 53.3074C553.283 56.9341 552.472 60.1341 550.851 62.9074C549.272 65.6381 547.117 67.7501 544.387 69.2434C541.656 70.7367 538.627 71.4834 535.299 71.4834ZM535.299 66.3634C537.389 66.3634 539.352 65.8727 541.187 64.8914C543.021 63.9101 544.493 62.4381 545.603 60.4754C546.755 58.5127 547.331 56.1234 547.331 53.3074C547.331 50.4914 546.776 48.1021 545.667 46.1394C544.557 44.1767 543.107 42.7261 541.315 41.7874C539.523 40.8061 537.581 40.3154 535.491 40.3154C533.357 40.3154 531.395 40.8061 529.603 41.7874C527.853 42.7261 526.445 44.1767 525.379 46.1394C524.312 48.1021 523.779 50.4914 523.779 53.3074C523.779 56.1661 524.291 58.5767 525.315 60.5394C526.381 62.5021 527.789 63.9741 529.539 64.9554C531.288 65.8941 533.208 66.3634 535.299 66.3634ZM566.764 41.5314C567.788 39.5261 569.239 37.9687 571.116 36.8594C573.036 35.7501 575.362 35.1954 578.092 35.1954V41.2114H576.556C570.028 41.2114 566.764 44.7527 566.764 51.8354V70.9074H560.94V35.8354H566.764V41.5314ZM604.399 70.9074L590.639 55.4194V70.9074H584.815V23.5474H590.639V51.3874L604.143 35.8354H612.271L595.759 53.3074L612.335 70.9074H604.399ZM681.535 35.8354L670.591 70.9074H664.575L656.127 43.0674L647.679 70.9074H641.663L630.655 35.8354H636.607L644.671 65.2754L653.375 35.8354H659.327L667.839 65.3394L675.775 35.8354H681.535ZM690.323 30.1394C689.214 30.1394 688.275 29.7554 687.507 28.9874C686.739 28.2194 686.355 27.2807 686.355 26.1714C686.355 25.0621 686.739 24.1234 687.507 23.3554C688.275 22.5874 689.214 22.2034 690.323 22.2034C691.39 22.2034 692.286 22.5874 693.011 23.3554C693.779 24.1234 694.163 25.0621 694.163 26.1714C694.163 27.2807 693.779 28.2194 693.011 28.9874C692.286 29.7554 691.39 30.1394 690.323 30.1394ZM693.139 35.8354V70.9074H687.315V35.8354H693.139ZM710.169 40.6354V61.3074C710.169 63.0141 710.532 64.2301 711.257 64.9554C711.983 65.6381 713.241 65.9794 715.033 65.9794H719.321V70.9074H714.073C710.831 70.9074 708.399 70.1607 706.777 68.6674C705.156 67.1741 704.345 64.7207 704.345 61.3074V40.6354H699.801V35.8354H704.345V27.0034H710.169V35.8354H719.321V40.6354H710.169ZM743.786 35.1954C746.431 35.1954 748.82 35.7714 750.954 36.9234C753.087 38.0327 754.751 39.7181 755.946 41.9794C757.183 44.2407 757.802 46.9927 757.802 50.2354V70.9074H752.042V51.0674C752.042 47.5687 751.167 44.9021 749.418 43.0674C747.668 41.1901 745.279 40.2514 742.25 40.2514C739.178 40.2514 736.724 41.2114 734.89 43.1314C733.098 45.0514 732.202 47.8461 732.202 51.5154V70.9074H726.378V23.5474H732.202V40.8274C733.354 39.0354 734.932 37.6487 736.938 36.6674C738.986 35.6861 741.268 35.1954 743.786 35.1954Z" fill="#2D2241"/>
<path fill-rule="evenodd" clip-rule="evenodd" d="M155.621 119.6C152.698 159.744 119.202 191.405 78.3123 191.405C35.5014 191.405 0.796387 156.7 0.796387 113.889C0.796387 71.078 35.5014 36.373 78.3123 36.373C119.261 36.373 152.794 68.1253 155.633 108.352H1323.2V119.6H155.621ZM145.629 113.889C145.629 151.067 115.49 181.205 78.3123 181.205C41.1345 181.205 10.9959 151.067 10.9959 113.889C10.9959 76.711 41.1345 46.5724 78.3123 46.5724C115.49 46.5724 145.629 76.711 145.629 113.889Z" fill="#F27B0D"/>
<path d="M96.4082 129.889L80.4082 113.889V101.169C85.0482 99.4889 88.4082 95.0889 88.4082 89.8889C88.4082 83.2489 83.0482 77.8889 76.4082 77.8889C69.7682 77.8889 64.4082 83.2489 64.4082 89.8889C64.4082 95.0889 67.7682 99.4889 72.4082 101.169V113.889L56.4082 129.889H40.4082V149.889H60.4082V137.689L76.4082 120.889L92.4082 137.689V149.889H112.408V129.889H96.4082Z" fill="#F27B0D"/>
</svg>
