<svg width="1323" height="191" viewBox="0 0 1323 191" fill="none" xmlns="http://www.w3.org/2000/svg">
<path d="M259.862 28.816L245.318 79H237.974L226.31 38.608L214.214 79L206.942 79.072L192.902 28.816H199.886L210.83 71.368L222.926 28.816H230.27L241.79 71.224L252.806 28.816H259.862ZM286.616 38.824C289.592 38.824 292.28 39.472 294.68 40.768C297.08 42.016 298.952 43.912 300.296 46.456C301.688 49 302.384 52.096 302.384 55.744V79H295.904V56.68C295.904 52.744 294.92 49.744 292.952 47.68C290.984 45.568 288.296 44.512 284.888 44.512C281.432 44.512 278.672 45.592 276.608 47.752C274.592 49.912 273.584 53.056 273.584 57.184V79H267.032V25.72H273.584V45.16C274.88 43.144 276.656 41.584 278.912 40.48C281.216 39.376 283.784 38.824 286.616 38.824ZM330.295 79.648C326.599 79.648 323.239 78.808 320.215 77.128C317.239 75.448 314.887 73.072 313.159 70C311.479 66.88 310.639 63.28 310.639 59.2C310.639 55.168 311.503 51.616 313.231 48.544C315.007 45.424 317.407 43.048 320.431 41.416C323.455 39.736 326.839 38.896 330.583 38.896C334.327 38.896 337.711 39.736 340.735 41.416C343.759 43.048 346.135 45.4 347.863 48.472C349.639 51.544 350.527 55.12 350.527 59.2C350.527 63.28 349.615 66.88 347.791 70C346.015 73.072 343.591 75.448 340.519 77.128C337.447 78.808 334.039 79.648 330.295 79.648ZM330.295 73.888C332.647 73.888 334.855 73.336 336.919 72.232C338.983 71.128 340.639 69.472 341.887 67.264C343.183 65.056 343.831 62.368 343.831 59.2C343.831 56.032 343.207 53.344 341.959 51.136C340.711 48.928 339.079 47.296 337.063 46.24C335.047 45.136 332.863 44.584 330.511 44.584C328.111 44.584 325.903 45.136 323.887 46.24C321.919 47.296 320.335 48.928 319.135 51.136C317.935 53.344 317.335 56.032 317.335 59.2C317.335 62.416 317.911 65.128 319.063 67.336C320.263 69.544 321.847 71.2 323.815 72.304C325.783 73.36 327.943 73.888 330.295 73.888ZM430.897 39.544L418.585 79H411.817L402.313 47.68L392.809 79H386.041L373.657 39.544H380.353L389.425 72.664L399.217 39.544H405.913L415.489 72.736L424.417 39.544H430.897ZM473.399 57.76C473.399 59.008 473.327 60.328 473.183 61.72H441.647C441.887 65.608 443.207 68.656 445.607 70.864C448.055 73.024 451.007 74.104 454.463 74.104C457.295 74.104 459.647 73.456 461.519 72.16C463.439 70.816 464.783 69.04 465.551 66.832H472.607C471.551 70.624 469.439 73.72 466.271 76.12C463.103 78.472 459.167 79.648 454.463 79.648C450.719 79.648 447.359 78.808 444.383 77.128C441.455 75.448 439.151 73.072 437.471 70C435.791 66.88 434.951 63.28 434.951 59.2C434.951 55.12 435.767 51.544 437.399 48.472C439.031 45.4 441.311 43.048 444.239 41.416C447.215 39.736 450.623 38.896 454.463 38.896C458.207 38.896 461.519 39.712 464.399 41.344C467.279 42.976 469.487 45.232 471.023 48.112C472.607 50.944 473.399 54.16 473.399 57.76ZM466.631 56.392C466.631 53.896 466.079 51.76 464.975 49.984C463.871 48.16 462.359 46.792 460.439 45.88C458.567 44.92 456.479 44.44 454.175 44.44C450.863 44.44 448.031 45.496 445.679 47.608C443.375 49.72 442.055 52.648 441.719 56.392H466.631ZM498.795 59.128C498.795 55.096 499.611 51.568 501.243 48.544C502.875 45.472 505.107 43.096 507.939 41.416C510.819 39.736 514.011 38.896 517.515 38.896C520.971 38.896 523.971 39.64 526.515 41.128C529.059 42.616 530.955 44.488 532.203 46.744V39.544H538.827V79H532.203V71.656C530.907 73.96 528.963 75.88 526.371 77.416C523.827 78.904 520.851 79.648 517.443 79.648C513.939 79.648 510.771 78.784 507.939 77.056C505.107 75.328 502.875 72.904 501.243 69.784C499.611 66.664 498.795 63.112 498.795 59.128ZM532.203 59.2C532.203 56.224 531.603 53.632 530.403 51.424C529.203 49.216 527.571 47.536 525.507 46.384C523.491 45.184 521.259 44.584 518.811 44.584C516.363 44.584 514.131 45.16 512.115 46.312C510.099 47.464 508.491 49.144 507.291 51.352C506.091 53.56 505.491 56.152 505.491 59.128C505.491 62.152 506.091 64.792 507.291 67.048C508.491 69.256 510.099 70.96 512.115 72.16C514.131 73.312 516.363 73.888 518.811 73.888C521.259 73.888 523.491 73.312 525.507 72.16C527.571 70.96 529.203 69.256 530.403 67.048C531.603 64.792 532.203 62.176 532.203 59.2ZM556.451 45.952C557.603 43.696 559.235 41.944 561.347 40.696C563.507 39.448 566.123 38.824 569.195 38.824V45.592H567.467C560.123 45.592 556.451 49.576 556.451 57.544V79H549.899V39.544H556.451V45.952ZM612.759 57.76C612.759 59.008 612.687 60.328 612.543 61.72H581.007C581.247 65.608 582.567 68.656 584.967 70.864C587.415 73.024 590.367 74.104 593.823 74.104C596.655 74.104 599.007 73.456 600.879 72.16C602.799 70.816 604.143 69.04 604.911 66.832H611.967C610.911 70.624 608.799 73.72 605.631 76.12C602.463 78.472 598.527 79.648 593.823 79.648C590.079 79.648 586.719 78.808 583.743 77.128C580.815 75.448 578.511 73.072 576.831 70C575.151 66.88 574.311 63.28 574.311 59.2C574.311 55.12 575.127 51.544 576.759 48.472C578.391 45.4 580.671 43.048 583.599 41.416C586.575 39.736 589.983 38.896 593.823 38.896C597.567 38.896 600.879 39.712 603.759 41.344C606.639 42.976 608.847 45.232 610.383 48.112C611.967 50.944 612.759 54.16 612.759 57.76ZM605.991 56.392C605.991 53.896 605.439 51.76 604.335 49.984C603.231 48.16 601.719 46.792 599.799 45.88C597.927 44.92 595.839 44.44 593.535 44.44C590.223 44.44 587.391 45.496 585.039 47.608C582.735 49.72 581.415 52.648 581.079 56.392H605.991Z" fill="#2D2241"/>
<path fill-rule="evenodd" clip-rule="evenodd" d="M154.917 118.692C151.994 158.836 118.499 190.497 77.6085 190.497C34.7976 190.497 0.0925903 155.792 0.0925903 112.981C0.0925903 70.1706 34.7976 35.4656 77.6085 35.4656C118.558 35.4656 152.091 67.2179 154.93 107.445H1322.5V118.692H154.917ZM144.925 112.981C144.925 150.159 114.786 180.298 77.6085 180.298C40.4307 180.298 10.2921 150.159 10.2921 112.981C10.2921 75.8036 40.4307 45.665 77.6085 45.665C114.786 45.665 144.925 75.8036 144.925 112.981Z" fill="#E8B810"/>
<path d="M77.6085 107.445C86.1996 107.445 93.1581 100.486 93.1581 91.895C93.1581 83.3039 86.1996 76.3454 77.6085 76.3454C69.0173 76.3454 62.0589 83.3039 62.0589 91.895C62.0589 100.486 69.0173 107.445 77.6085 107.445ZM77.6085 115.219C67.2291 115.219 46.5093 120.428 46.5093 130.769V138.544H108.708V130.769C108.708 120.428 87.9878 115.219 77.6085 115.219Z" fill="#E8B810"/>
</svg>
